<svg xmlns="http://www.w3.org/2000/svg" width="28.776" height="17.241" viewBox="0 0 28.776 17.241">
  <path id="Icon_awesome-address-card" data-name="Icon awesome-address-card" d="M9.248,5.595A4.01,4.01,0,1,1,5.238,9.6,4.014,4.014,0,0,1,9.248,5.595Zm7.018,14.838a1.314,1.314,0,0,1-1.4,1.2H3.633a1.314,1.314,0,0,1-1.4-1.2v-1.2c0-1.993,1.886-3.609,4.211-3.609h.313a6.454,6.454,0,0,0,4.988,0h.313c2.325,0,4.211,1.617,4.211,3.609ZM29.8,17.625h0Zm0-4.01h0Zm0-4.01h0Z" transform="translate(-1.63 -4.995)" fill="none" stroke="#000" stroke-width="1.2"/>
</svg>
