<svg xmlns="http://www.w3.org/2000/svg" width="22.414" height="22.414" viewBox="0 0 22.414 22.414">
  <g id="calendar" transform="translate(0.1 0.1)">
    <g id="Group_1076" data-name="Group 1076">
      <g id="Group_1075" data-name="Group 1075">
        <g id="Group_4347" data-name="Group 4347">
          <path id="Path_7077" data-name="Path 7077" d="M18.743,1.735H17.615V.868a.868.868,0,1,0-1.735,0v.868H11.931V.868a.868.868,0,0,0-1.735,0v.868h-3.9V.868a.868.868,0,0,0-1.735,0v.868H3.471A3.475,3.475,0,0,0,0,5.206V18.743a3.475,3.475,0,0,0,3.471,3.471h6.638a.868.868,0,1,0,0-1.735H3.471a1.737,1.737,0,0,1-1.735-1.735V5.206A1.737,1.737,0,0,1,3.471,3.471H4.556v.868a.868.868,0,0,0,1.735,0V3.471h3.9v.868a.868.868,0,0,0,1.735,0V3.471H15.88v.868a.868.868,0,1,0,1.735,0V3.471h1.128a1.737,1.737,0,0,1,1.735,1.735v4.946a.868.868,0,1,0,1.735,0V5.206A3.475,3.475,0,0,0,18.743,1.735Z" fill="#fff" stroke="#182f53" stroke-width="0.2"/>
          <path id="Path_7078" data-name="Path 7078" d="M275.25,270a5.25,5.25,0,1,0,5.25,5.25A5.256,5.256,0,0,0,275.25,270Zm0,8.764a3.514,3.514,0,1,1,3.514-3.514A3.518,3.518,0,0,1,275.25,278.764Z" transform="translate(-258.285 -258.286)" fill="#fff" stroke="#182f53" stroke-width="0.2"/>
          <path id="Path_7079" data-name="Path 7079" d="M373.126,331.779h-.391v-.911a.868.868,0,1,0-1.735,0v1.779a.868.868,0,0,0,.868.868h1.258a.868.868,0,0,0,0-1.735Z" transform="translate(-354.903 -315.682)" fill="#fff" stroke="#182f53" stroke-width="0.2"/>
        </g>
      </g>
    </g>
  </g>
</svg>
