<svg xmlns="http://www.w3.org/2000/svg" width="24.07" height="24.07" viewBox="0 0 24.07 24.07">
  <g id="Group_5555" data-name="Group 5555" transform="translate(-1396.213 -548.213)">
    <g id="checkbox_2_" data-name="checkbox (2)" transform="translate(1396.563 548.563)">
      <path id="Path_26025" data-name="Path 26025" d="M18.5,0H4.869A4.875,4.875,0,0,0,0,4.869V18.5A4.875,4.875,0,0,0,4.869,23.37H18.5A4.875,4.875,0,0,0,23.37,18.5V4.869A4.875,4.875,0,0,0,18.5,0Zm2.921,18.5A2.921,2.921,0,0,1,18.5,21.423H4.869A2.921,2.921,0,0,1,1.948,18.5V4.869A2.921,2.921,0,0,1,4.869,1.948H18.5a2.921,2.921,0,0,1,2.921,2.921Z" stroke="#fff" stroke-width="0.7"/>
      <path id="Path_26026" data-name="Path 26026" d="M9.185,15.668,5.369,11.852a.974.974,0,0,0-1.377,0h0a.974.974,0,0,0,0,1.377l3.816,3.816a1.948,1.948,0,0,0,2.755,0l9.009-9.009a.974.974,0,0,0,0-1.377h0a.974.974,0,0,0-1.377,0Z" transform="translate(-0.097 -0.167)" stroke="#fff" stroke-width="0.7"/>
    </g>
  </g>
</svg>
