<svg xmlns="http://www.w3.org/2000/svg" width="24.559" height="22.554" viewBox="0 0 24.559 22.554">
  <path id="users" d="M22.262,20.164l-3.919-1.7a.8.8,0,0,1-.282-.309l2.616,0a4.636,4.636,0,0,0,1.989-.269,1.191,1.191,0,0,0,.5-1.776,13.28,13.28,0,0,1-2.548-6.666c0-.049-.159-4.845-4.9-4.884a5.634,5.634,0,0,0-1.929.342,3.335,3.335,0,0,0-.6-.986A5.044,5.044,0,0,0,9.223,2.5,5.048,5.048,0,0,0,5.25,3.915a3.6,3.6,0,0,0-.839,2.616V8.665a1.6,1.6,0,0,0-.4,1.053v1.6a1.6,1.6,0,0,0,.6,1.247,8.416,8.416,0,0,0,1.4,2.9V16.8a1.06,1.06,0,0,1-.552.93L1.885,19.678A3.617,3.617,0,0,0,0,22.855v1.7H24.059V23.072A3.234,3.234,0,0,0,22.262,20.164Zm-4.618,3.589H.8v-.9a2.813,2.813,0,0,1,1.467-2.472l3.577-1.951a1.862,1.862,0,0,0,.97-1.635V15.186l-.093-.111a7.57,7.57,0,0,1-1.367-2.833l-.036-.159-.137-.088a.8.8,0,0,1-.371-.672v-1.6a.791.791,0,0,1,.269-.591l.132-.119V6.51l0-.053a2.784,2.784,0,0,1,.644-2.013A4.308,4.308,0,0,1,9.223,3.3a4.317,4.317,0,0,1,3.363,1.134,2.606,2.606,0,0,1,.58,1.15c.006.028.012.056.018.083s.012.057.016.084.01.061.014.091.006.043.009.063c.006.05.011.1.014.142a.091.091,0,0,1,0,.01c0,.043,0,.084.006.122,0,.007,0,.013,0,.02,0,.033,0,.065,0,.093v.012c0,.094-.008.15-.008.152l0,2.549.132.119a.79.79,0,0,1,.269.591v1.6a.8.8,0,0,1-.57.761l-.2.061-.064.2a8.394,8.394,0,0,1-1.136,2.291,5.276,5.276,0,0,1-.336.433l-.1.114v1.654a1.889,1.889,0,0,0,.026.3c0,.021.009.041.013.062a1.881,1.881,0,0,0,.062.237c.006.018.012.035.019.053a1.865,1.865,0,0,0,.11.243l.014.027a1.83,1.83,0,0,0,.2.29l.091.113h.016a1.867,1.867,0,0,0,.475.343l3.831,1.915a2.8,2.8,0,0,1,1.557,2.518Zm5.614,0H18.446v-.819a3.6,3.6,0,0,0-2-3.235L13.7,18.323a.694.694,0,0,0-.636-.968h-.889a1.021,1.021,0,0,1-.045-.1.875.875,0,0,1-.1-.417V15.479c.092-.112.188-.24.288-.381A9.177,9.177,0,0,0,13.5,12.772a1.591,1.591,0,0,0,.933-1.45v-1.6a1.6,1.6,0,0,0-.4-1.053V6.532A3.528,3.528,0,0,0,14,5.675a4.8,4.8,0,0,1,1.72-.313c3.946.032,4.09,3.934,4.094,4.1.059,3.041,1.9,5.986,2.693,7.11a.389.389,0,0,1,.056.332.375.375,0,0,1-.215.247,3.942,3.942,0,0,1-1.634.206h-2.76a.739.739,0,0,0-.663,1.065,1.674,1.674,0,0,0,.712.773l3.908,1.693a2.436,2.436,0,0,1,1.345,2.186Z" transform="translate(0.25 -2.25)" fill="#fff" stroke="#fff" stroke-width="0.5"/>
</svg>
