<svg id="dashboard_5_" data-name="dashboard (5)" xmlns="http://www.w3.org/2000/svg" width="22.054" height="22.054" viewBox="0 0 22.054 22.054">
  <path id="Path_7081" data-name="Path 7081" d="M8.5,7.351H1.608A1.61,1.61,0,0,1,0,5.743V1.608A1.61,1.61,0,0,1,1.608,0H8.5a1.61,1.61,0,0,1,1.608,1.608V5.743A1.61,1.61,0,0,1,8.5,7.351ZM1.608,1.378a.23.23,0,0,0-.23.23V5.743a.23.23,0,0,0,.23.23H8.5a.23.23,0,0,0,.23-.23V1.608a.23.23,0,0,0-.23-.23Zm0,0" fill="#fff"/>
  <path id="Path_7082" data-name="Path 7082" d="M8.5,226.2H1.608A1.61,1.61,0,0,1,0,224.589V214.94a1.61,1.61,0,0,1,1.608-1.608H8.5a1.61,1.61,0,0,1,1.608,1.608v9.649A1.61,1.61,0,0,1,8.5,226.2ZM1.608,214.71a.23.23,0,0,0-.23.23v9.649a.23.23,0,0,0,.23.23H8.5a.23.23,0,0,0,.23-.23V214.94a.23.23,0,0,0-.23-.23Zm0,0" transform="translate(0 -204.143)" fill="#fff"/>
  <path id="Path_7083" data-name="Path 7083" d="M285.832,348.684H278.94a1.61,1.61,0,0,1-1.608-1.608V342.94a1.61,1.61,0,0,1,1.608-1.608h6.892a1.61,1.61,0,0,1,1.608,1.608v4.135A1.61,1.61,0,0,1,285.832,348.684Zm-6.892-5.973a.23.23,0,0,0-.23.23v4.135a.23.23,0,0,0,.23.23h6.892a.23.23,0,0,0,.23-.23V342.94a.23.23,0,0,0-.23-.23Zm0,0" transform="translate(-265.386 -326.629)" fill="#fff"/>
  <path id="Path_7084" data-name="Path 7084" d="M285.832,12.865H278.94a1.61,1.61,0,0,1-1.608-1.608V1.608A1.61,1.61,0,0,1,278.94,0h6.892a1.61,1.61,0,0,1,1.608,1.608v9.649A1.61,1.61,0,0,1,285.832,12.865ZM278.94,1.378a.23.23,0,0,0-.23.23v9.649a.23.23,0,0,0,.23.23h6.892a.23.23,0,0,0,.23-.23V1.608a.23.23,0,0,0-.23-.23Zm0,0" transform="translate(-265.386)" fill="#fff"/>
</svg>
