<svg xmlns="http://www.w3.org/2000/svg" width="21.23" height="19.494" viewBox="0 0 21.23 19.494">
  <path id="browser_1_" data-name="browser (1)" d="M16.49,1H4.34A4.345,4.345,0,0,0,0,5.34V15.754a4.345,4.345,0,0,0,4.34,4.34H16.49a4.345,4.345,0,0,0,4.34-4.34V5.34A4.345,4.345,0,0,0,16.49,1ZM4.34,2.736H16.49a2.6,2.6,0,0,1,2.6,2.6v.868H1.736V5.34A2.6,2.6,0,0,1,4.34,2.736ZM16.49,18.358H4.34a2.6,2.6,0,0,1-2.6-2.6V7.943H19.094v7.811A2.6,2.6,0,0,1,16.49,18.358Zm0-6.943a.868.868,0,0,1-.868.868H5.207a.868.868,0,0,1,0-1.736H15.622A.868.868,0,0,1,16.49,11.415Zm-3.472,3.472a.868.868,0,0,1-.868.868H5.207a.868.868,0,0,1,0-1.736h6.943A.868.868,0,0,1,13.019,14.886Z" transform="translate(0.2 -0.8)" stroke="#fff" stroke-width="0.4"/>
</svg>
