<svg xmlns="http://www.w3.org/2000/svg" width="23.035" height="27.441" viewBox="0 0 23.035 27.441">
  <path id="add-document" d="M17.424,17.628a1.1,1.1,0,0,1-1.1,1.1h-2.2v2.2a1.1,1.1,0,1,1-2.2,0v-2.2h-2.2a1.1,1.1,0,1,1,0-2.2h2.2v-2.2a1.1,1.1,0,1,1,2.2,0v2.2h2.2A1.1,1.1,0,0,1,17.424,17.628Zm6.61-6.076v9.381a5.515,5.515,0,0,1-5.509,5.509H7.509A5.515,5.515,0,0,1,2,20.933V5.509A5.515,5.515,0,0,1,7.509,0h4.974a7.666,7.666,0,0,1,5.454,2.259L21.775,6.1a7.658,7.658,0,0,1,2.26,5.452ZM16.379,3.816a5.52,5.52,0,0,0-1.158-.859V7.712a1.1,1.1,0,0,0,1.1,1.1h4.755a5.49,5.49,0,0,0-.86-1.157Zm5.452,7.735c0-.182-.035-.356-.052-.534H16.322a3.305,3.305,0,0,1-3.305-3.305V2.255c-.178-.017-.354-.052-.534-.052H7.509A3.305,3.305,0,0,0,4.2,5.509V20.933a3.305,3.305,0,0,0,3.305,3.305H18.526a3.305,3.305,0,0,0,3.305-3.305Z" transform="translate(-1.5 0.5)" stroke="#fff" stroke-width="1"/>
</svg>
