<svg xmlns="http://www.w3.org/2000/svg" width="17.984" height="17.984" viewBox="0 0 17.984 17.984">
  <path id="Icon_ionic-md-call" data-name="Icon ionic-md-call" d="M20.352,16.156a10.944,10.944,0,0,1-3.31-.513.872.872,0,0,0-.932.233l-2.052,2.051A14.022,14.022,0,0,1,7.9,11.773L9.955,9.722a.972.972,0,0,0,.233-.932,10.141,10.141,0,0,1-.56-3.357A.935.935,0,0,0,8.7,4.5H5.432a.935.935,0,0,0-.932.932A15.839,15.839,0,0,0,20.352,21.284a.935.935,0,0,0,.932-.932V17.088A.935.935,0,0,0,20.352,16.156Z" transform="translate(-3.9 -3.9)" fill="none" stroke="#000" stroke-width="1.2"/>
</svg>
