<svg xmlns="http://www.w3.org/2000/svg" width="24.925" height="22.414" viewBox="0 0 24.925 22.414">
  <g id="configuration" transform="translate(0.1 -25.9)">
    <g id="Group_1589" data-name="Group 1589">
      <path id="Path_181" data-name="Path 181" d="M189.38,96.761A3.38,3.38,0,1,0,186,93.38,3.384,3.384,0,0,0,189.38,96.761Zm1.447-5.312h-2.894a2.409,2.409,0,0,1,2.894,0Zm-3.659.966h4.425a2.415,2.415,0,1,1-4.425,0Zm0,0" transform="translate(-177.018 -59.654)" fill="#fff" stroke="#182f53" stroke-width="0.2"/>
      <path id="Path_183" data-name="Path 183" d="M24.242,17.868h-.966V7.244A1.45,1.45,0,0,0,21.828,5.8H18.315a6.24,6.24,0,0,0-.379-.91l.915-.915a.483.483,0,0,0,0-.683L16.8,1.239a.483.483,0,0,0-.683,0l-.915.915a6.238,6.238,0,0,0-.91-.379V.483A.483.483,0,0,0,13.811,0h-2.9a.483.483,0,0,0-.483.483V1.775a6.239,6.239,0,0,0-.91.379l-.915-.915a.483.483,0,0,0-.683,0L5.875,3.288a.483.483,0,0,0,0,.683l.915.915a6.26,6.26,0,0,0-.379.91H2.9A1.451,1.451,0,0,0,1.449,7.244V17.868H.483A.483.483,0,0,0,0,18.351v1.207a2.659,2.659,0,0,0,2.656,2.656H10.19a.483.483,0,1,0,0-.966H2.656a1.692,1.692,0,0,1-1.69-1.69v-.724H7.595a1.935,1.935,0,0,0,1.871,1.449h5.8a1.935,1.935,0,0,0,1.871-1.449H23.76v.724a1.692,1.692,0,0,1-1.69,1.69H14.536a.483.483,0,1,0,0,.966h7.534a2.659,2.659,0,0,0,2.656-2.656V18.351A.483.483,0,0,0,24.242,17.868ZM6.772,6.761A.483.483,0,0,0,7.24,6.4,5.28,5.28,0,0,1,7.8,5.045a.483.483,0,0,0-.075-.587l-.83-.83L8.265,2.263l.829.829a.483.483,0,0,0,.587.075A5.277,5.277,0,0,1,11.035,2.6a.483.483,0,0,0,.362-.467V.966h1.932V2.136a.483.483,0,0,0,.362.468,5.28,5.28,0,0,1,1.354.563.483.483,0,0,0,.587-.075l.83-.83,1.366,1.366L17,4.459a.483.483,0,0,0-.075.587A5.277,5.277,0,0,1,17.486,6.4a.483.483,0,0,0,.467.362h1.171V8.693H17.953a.483.483,0,0,0-.468.362,5.28,5.28,0,0,1-.563,1.354.483.483,0,0,0,.075.587l.83.83L16.46,13.19l-.829-.83a.483.483,0,0,0-.587-.075,5.277,5.277,0,0,1-1.354.563.483.483,0,0,0-.362.467v1.171H11.4V13.317a.483.483,0,0,0-.362-.468,5.28,5.28,0,0,1-1.354-.563.483.483,0,0,0-.587.075l-.83.83L6.9,11.824l.83-.829a.483.483,0,0,0,.075-.587A5.277,5.277,0,0,1,7.24,9.054a.483.483,0,0,0-.467-.362H5.6V6.761Zm9.937,11.107a.483.483,0,0,0-.483.483.967.967,0,0,1-.966.966h-5.8a.967.967,0,0,1-.966-.966.483.483,0,0,0-.483-.483h-5.6V7.244A.483.483,0,0,1,2.9,6.761H4.636V9.175a.483.483,0,0,0,.483.483H6.411a6.24,6.24,0,0,0,.379.91l-.915.915a.483.483,0,0,0,0,.683l2.049,2.049a.483.483,0,0,0,.683,0l.915-.915a6.238,6.238,0,0,0,.91.379V14.97a.483.483,0,0,0,.483.483h2.9a.483.483,0,0,0,.483-.483V13.679a6.239,6.239,0,0,0,.91-.379l.915.915a.483.483,0,0,0,.683,0l2.049-2.049a.483.483,0,0,0,0-.683l-.915-.915a6.261,6.261,0,0,0,.379-.91h1.292a.483.483,0,0,0,.483-.483V6.761h1.739a.483.483,0,0,1,.483.483V17.868Zm0,0" transform="translate(0 26)" fill="#fff" stroke="#182f53" stroke-width="0.2"/>
    </g>
  </g>
</svg>
