<svg xmlns="http://www.w3.org/2000/svg" width="20.831" height="27.441" viewBox="0 0 20.831 27.441">
  <path id="document-signed" d="M21.217,3.44,19.393,1.613A5.473,5.473,0,0,0,15.5,0H8.509A5.515,5.515,0,0,0,3,5.509V20.933a5.515,5.515,0,0,0,5.509,5.509h8.814a5.515,5.515,0,0,0,5.509-5.509V7.334A5.473,5.473,0,0,0,21.217,3.44ZM19.659,5a3.23,3.23,0,0,1,.418.511H17.322V2.754a3.415,3.415,0,0,1,.512.419Zm.968,15.935a3.305,3.305,0,0,1-3.305,3.305H8.509A3.305,3.305,0,0,1,5.2,20.933V5.509A3.305,3.305,0,0,1,8.509,2.2h6.61V5.509a2.2,2.2,0,0,0,2.2,2.2h3.305ZM17.322,9.916a1.1,1.1,0,0,1,0,2.2H8.509a1.1,1.1,0,1,1,0-2.2Zm1.1,5.509a1.1,1.1,0,0,1-1.1,1.1H8.509a1.1,1.1,0,1,1,0-2.2h8.814A1.1,1.1,0,0,1,18.424,15.424Zm-.212,3.76a1.1,1.1,0,0,1-.239,1.536,7.122,7.122,0,0,1-3.808,1.314,3.583,3.583,0,0,1-2.2-.771c-.361-.248-.5-.331-.771-.331a4.353,4.353,0,0,0-2.018.875,1.1,1.1,0,0,1-1.337-1.75,6.457,6.457,0,0,1,3.36-1.329,3.333,3.333,0,0,1,2.018.722,1.484,1.484,0,0,0,.952.38,5.053,5.053,0,0,0,2.509-.891,1.1,1.1,0,0,1,1.538.245Z" transform="translate(-2.5 0.5)" stroke="#fff" stroke-width="1"/>
</svg>
