<svg xmlns="http://www.w3.org/2000/svg" width="22.86" height="22.86" viewBox="0 0 22.86 22.86">
  <path id="Path_24346" data-name="Path 24346" d="M1163.623,994.686a.372.372,0,0,0-.419.422v9a.372.372,0,0,0,.419.422h8.944a.372.372,0,0,0,.419-.422,9.254,9.254,0,0,0-2.376-6.188A8.935,8.935,0,0,0,1163.623,994.686Zm.419,9V995.67a8.371,8.371,0,0,1,7.966,8.016Zm6.708,3.234a.372.372,0,0,0-.419-.422h-9.224v-9.281a.372.372,0,0,0-.419-.422,10.125,10.125,0,1,0,10.062,10.125Zm-10.062,9.281a9.288,9.288,0,0,1-.419-18.563v9.282a.372.372,0,0,0,.419.422h9.224A9.349,9.349,0,0,1,1160.688,1016.2Z" transform="translate(-1150.376 -994.436)" fill="#fff" stroke="#fff" stroke-width="0.5" fill-rule="evenodd"/>
</svg>
