<svg xmlns="http://www.w3.org/2000/svg" width="73" height="73" viewBox="0 0 73 73">
  <g id="Group_9538" data-name="Group 9538" transform="translate(-782 -592)">
    <rect id="Rectangle_3192" data-name="Rectangle 3192" width="73" height="73" rx="10" transform="translate(782 592)" fill="#89b465" opacity="0.1"/>
    <path id="Path_25270" data-name="Path 25270" d="M384,290.411l.278,0h.128c-.044,0-.086,0-.128,0C384.187,290.407,384.1,290.409,384,290.411Zm-1.18.008c.254.008.507.006.763,0C383.329,290.422,383.076,290.426,382.822,290.418Z" transform="translate(427.752 334.402)" fill="#ff2366"/>
    <g id="Group_4840" data-name="Group 4840" transform="translate(800.715 607.055)">
      <path id="Path_344" data-name="Path 344" d="M233.6,248.556a11.921,11.921,0,0,0-.036-1.238,3.784,3.784,0,0,0-2.462-3.238,3.889,3.889,0,0,0-1.27-.235c-.1,0-.192,0-.292,0s-.185,0-.278,0c-1.231-.014-2.466,0-3.7,0-.231,0-.463-.032-.74-.057a3.15,3.15,0,0,0-2.092-3.548H209l-.053.021a3.151,3.151,0,0,0-2.035,3.523c-.306.021-.559.06-.811.06-1.2.007-2.409-.011-3.612,0-.093,0-.185,0-.278,0-.132,0-.263,0-.395,0a3.88,3.88,0,0,0-2.057.623l-.1.064a3.234,3.234,0,0,0-1.2,1.409c-.018.036-.036.075-.053.11s-.032.082-.05.125a3.988,3.988,0,0,0-.288,1.142l-.011.139c-.032.363-.029.729-.029,1.1q-.005,11.609,0,23.225v6.48a8.163,8.163,0,0,0,.242,2.284c.367,1.21,1.2,1.854,2.914,2.576H230.46c1.637-.69,2.466-1.313,2.85-2.427a7.528,7.528,0,0,0,.292-2.434V270.87Q233.6,259.71,233.6,248.556Zm-23-4.7h10.486v3.473H210.6Zm19.492,34.789c-.007.715-.235.918-.964.911-3.786-.021-7.572-.018-11.358-.018h-3.825c-3.807,0-7.611,0-11.419.018-.751.007-.971-.206-.968-.968v-.011q.016-6.181.018-12.365.005-8.962-.014-17.923a2.239,2.239,0,0,1,.025-.363v-.007a.593.593,0,0,1,.548-.573h1.174a.087.087,0,0,1,.043,0c.907.007,1.822,0,2.758,0h.786c.011.085.018.171.021.249a7.407,7.407,0,0,0,.011.808,2.706,2.706,0,0,0,1.341,2.167c.057.032.114.064.171.089a1.764,1.764,0,0,0,.171.075c.078.032.157.057.238.082a2,2,0,0,0,.253.057c.085.018.174.028.263.039s.178.011.27.011q6.213.021,12.433,0h.029a2.677,2.677,0,0,0,2.719-2.519c.028-.31,0-.626,0-1.057h.729c.936,0,1.85.011,2.761,0a.1.1,0,0,1,.046,0h1.156c.466.071.576.377.576.943q-.011,6.949-.014,13.9v3.96q0,1.345,0,2.687,0,2.2,0,4.4.005,2.679.011,5.355Z" transform="translate(-198.03 -240.23)" fill="#05d183" stroke="#f3f7ef" stroke-width="1"/>
    </g>
    <path id="search_6_" data-name="search (6)" d="M15.629,14.7l-3.938-3.938a6.608,6.608,0,1,0-.933.933L14.7,15.629a.66.66,0,1,0,.933-.933ZM6.586,11.864a5.278,5.278,0,1,1,5.278-5.278,5.278,5.278,0,0,1-5.278,5.278Z" transform="translate(810.605 623.588)" fill="#05d183" stroke="#05d183" stroke-width="0.7"/>
  </g>
</svg>
