<svg xmlns="http://www.w3.org/2000/svg" width="74" height="73" viewBox="0 0 74 73">
  <g id="Group_9535" data-name="Group 9535" transform="translate(-1158.699 -427)">
    <rect id="Rectangle_3194" data-name="Rectangle 3194" width="74" height="73" rx="10" transform="translate(1158.699 427)" fill="#05d15b" opacity="0.1"/>
    <g id="Group_4842" data-name="Group 4842" transform="translate(561.699 125)">
      <g id="Group_4840" data-name="Group 4840" transform="translate(616.475 317.423)">
        <path id="Path_344" data-name="Path 344" d="M233.6,248.556a11.921,11.921,0,0,0-.036-1.238,3.784,3.784,0,0,0-2.462-3.238,3.889,3.889,0,0,0-1.27-.235c-.1,0-.192,0-.292,0s-.185,0-.278,0c-1.231-.014-2.466,0-3.7,0-.231,0-.463-.032-.74-.057a3.15,3.15,0,0,0-2.092-3.548H209l-.053.021a3.151,3.151,0,0,0-2.035,3.523c-.306.021-.559.06-.811.06-1.2.007-2.409-.011-3.612,0-.093,0-.185,0-.278,0-.132,0-.263,0-.395,0a3.88,3.88,0,0,0-2.057.623l-.1.064a3.234,3.234,0,0,0-1.2,1.409c-.018.036-.036.075-.053.11s-.032.082-.05.125a3.988,3.988,0,0,0-.288,1.142l-.011.139c-.032.363-.029.729-.029,1.1q-.005,11.609,0,23.225v6.48a8.163,8.163,0,0,0,.242,2.284c.367,1.21,1.2,1.854,2.914,2.576H230.46c1.637-.69,2.466-1.313,2.85-2.427a7.528,7.528,0,0,0,.292-2.434V270.87Q233.6,259.71,233.6,248.556Zm-23-4.7h10.486v3.473H210.6Zm19.492,34.789c-.007.715-.235.918-.964.911-3.786-.021-7.572-.018-11.358-.018h-3.825c-3.807,0-7.611,0-11.419.018-.751.007-.971-.206-.968-.968v-.011q.016-6.181.018-12.365.005-8.962-.014-17.923a2.239,2.239,0,0,1,.025-.363v-.007a.593.593,0,0,1,.548-.573h1.174a.087.087,0,0,1,.043,0c.907.007,1.822,0,2.758,0h.786c.011.085.018.171.021.249a7.407,7.407,0,0,0,.011.808,2.706,2.706,0,0,0,1.341,2.167c.057.032.114.064.171.089a1.764,1.764,0,0,0,.171.075c.078.032.157.057.238.082a2,2,0,0,0,.253.057c.085.018.174.028.263.039s.178.011.27.011q6.213.021,12.433,0h.029a2.677,2.677,0,0,0,2.719-2.519c.028-.31,0-.626,0-1.057h.729c.936,0,1.85.011,2.761,0a.1.1,0,0,1,.046,0h1.156c.466.071.576.377.576.943q-.011,6.949-.014,13.9v3.96q0,1.345,0,2.687,0,2.2,0,4.4.005,2.679.011,5.355Z" transform="translate(-198.03 -240.23)" fill="#05d15b" stroke="#e5fbee" stroke-width="1"/>
      </g>
    </g>
    <path id="hourglass-end" d="M14.074,18.983H6.168A3.175,3.175,0,0,1,3.76,17.876a3.116,3.116,0,0,1-.725-2.5A9.9,9.9,0,0,1,6.516,9.492,9.9,9.9,0,0,1,3.036,3.6a3.116,3.116,0,0,1,.725-2.5A3.175,3.175,0,0,1,6.168,0h7.906a3.177,3.177,0,0,1,2.408,1.107,3.119,3.119,0,0,1,.726,2.5,9.931,9.931,0,0,1-3.489,5.889A9.932,9.932,0,0,1,17.2,15.383a3.12,3.12,0,0,1-.726,2.5A3.177,3.177,0,0,1,14.074,18.983Zm0-17.4H6.168a1.594,1.594,0,0,0-1.209.554A1.519,1.519,0,0,0,4.6,3.366a8.869,8.869,0,0,0,3.638,5.5.791.791,0,0,1,0,1.24A8.889,8.889,0,0,0,4.6,15.614a1.519,1.519,0,0,0,.361,1.233,1.594,1.594,0,0,0,1.209.554h7.906a1.593,1.593,0,0,0,1.209-.554,1.516,1.516,0,0,0,.361-1.229A8.912,8.912,0,0,0,12,10.112a.791.791,0,0,1,0-1.237,8.9,8.9,0,0,0,3.638-5.507,1.515,1.515,0,0,0-.365-1.232A1.593,1.593,0,0,0,14.074,1.582ZM13.03,15.819H7.207a.791.791,0,0,1-.733-1.087,8.847,8.847,0,0,1,2.745-3.379l.41-.326a.791.791,0,0,1,.985,0l.4.321a8.938,8.938,0,0,1,2.747,3.382.791.791,0,0,1-.732,1.088ZM8.564,14.237h3.107a9.151,9.151,0,0,0-1.552-1.582A8.938,8.938,0,0,0,8.564,14.237Z" transform="translate(1185.838 457.508)" fill="#05d15b"/>
  </g>
</svg>
