<svg xmlns="http://www.w3.org/2000/svg" width="23.486" height="20.932" viewBox="0 0 23.486 20.932">
  <path id="Path_24345" data-name="Path 24345" d="M993.245,1113.676a1.234,1.234,0,0,0-.58,1.024v1.171a.648.648,0,0,0,.58.439.656.656,0,0,0,.435-.439V1114.7c0-.146,0-.292.145-.292a13.146,13.146,0,0,1,2.319-1.61c.145,0,.29-.293.29-.439v-1.61c0-.146-.145-.293-.29-.439a.512.512,0,0,1-.145-.293v-1.61a1.253,1.253,0,0,1,1.159-1.171h.29a1.253,1.253,0,0,1,1.159,1.171v1.61a.513.513,0,0,1-.145.293c-.145.146-.29.293-.29.439v1.61c0,.146.145.439.29.439a13.147,13.147,0,0,1,2.319,1.61c.145,0,.145.146.145.292v1.171a.656.656,0,0,0,.435.439.648.648,0,0,0,.58-.439V1114.7a1.234,1.234,0,0,0-.58-1.024,25.194,25.194,0,0,0-2.174-1.61V1110.9a1.244,1.244,0,0,0,.29-.878v-1.61a1.991,1.991,0,0,0-2.029-2.049h-.29a1.991,1.991,0,0,0-2.029,2.049v1.61a1.244,1.244,0,0,0,.29.878v1.171A25.2,25.2,0,0,0,993.245,1113.676Zm15.216,13.316a.386.386,0,0,0,.435-.439v-1.171a1.588,1.588,0,0,0-.435-1.024,17.528,17.528,0,0,0-2.319-1.463v-1.171a1.082,1.082,0,0,0,.29-.878v-1.756a1.928,1.928,0,0,0-1.884-1.9h-.435a2.059,2.059,0,0,0-2.029,1.9v1.756a1.27,1.27,0,0,0,.435.878v1.171a17.528,17.528,0,0,0-2.319,1.463,1.588,1.588,0,0,0-.435,1.024v1.171a.435.435,0,1,0,.87,0v-1.171a.513.513,0,0,0,.145-.293c1.014-.732,2.174-1.317,2.319-1.463.145,0,.29-.293.29-.439v-1.61c0-.293,0-.439-.145-.439-.145-.146-.145-.146-.145-.293v-1.756a1,1,0,0,1,1.014-1.024h.435a1,1,0,0,1,1.014,1.024v1.756c0,.146,0,.146-.145.293-.145,0-.145.146-.145.439v1.61c0,.146,0,.439.29.439.145.146,1.3.732,2.319,1.463a.512.512,0,0,0,.145.293v1.171A.386.386,0,0,0,1008.461,1126.992Zm-14.057-2.634a17.528,17.528,0,0,0-2.319-1.463v-1.171a1.27,1.27,0,0,0,.435-.878v-1.756a2.059,2.059,0,0,0-2.029-1.9h-.435a1.928,1.928,0,0,0-1.884,1.9v1.756a1.082,1.082,0,0,0,.29.878v1.171a17.528,17.528,0,0,0-2.319,1.463,1.588,1.588,0,0,0-.435,1.024v1.171a.435.435,0,1,0,.869,0v-1.171a.512.512,0,0,0,.145-.293c1.014-.732,2.174-1.317,2.319-1.463.29,0,.29-.293.29-.439v-1.61c0-.293,0-.439-.145-.439-.145-.146-.145-.146-.145-.293v-1.756a1,1,0,0,1,1.014-1.024h.435a1,1,0,0,1,1.014,1.024v1.756c0,.146,0,.146-.145.293-.145,0-.145.146-.145.439v1.61c0,.146.145.439.29.439.145.146,1.3.732,2.319,1.463a.512.512,0,0,0,.145.293v1.171a.435.435,0,1,0,.869,0v-1.171A1.589,1.589,0,0,0,994.4,1124.358Zm5.507-2.78c.145,0,.145.146.29.146s.29-.146.435-.293a.648.648,0,0,0-.145-.732l-2.753-1.463v-3.073a.435.435,0,1,0-.87,0v3.073l-2.608,1.61c-.29,0-.29.293-.145.585,0,.146.145.293.435.293l.145-.146,2.609-1.463Z" transform="translate(-985.559 -1106.21)" fill="#fff" stroke="#fff" stroke-width="0.3" fill-rule="evenodd"/>
</svg>
